<?xml version="1.0" standalone="no"?>
<!DOCTYPE svg PUBLIC "-//W3C//DTD SVG 20010904//EN"
 "http://www.w3.org/TR/2001/REC-SVG-20010904/DTD/svg10.dtd">
<svg version="1.0" xmlns="http://www.w3.org/2000/svg"
 width="16.000000pt" height="16.000000pt" viewBox="0 0 16.000000 16.000000"
 preserveAspectRatio="xMidYMid meet">
<metadata>
Created by potrace 1.11, written by Peter Selinger 2001-2013
</metadata>
<g transform="translate(0.000000,16.000000) scale(0.005333,-0.005333)"
fill="#000000" stroke="none">
<path d="M0 1500 l0 -1500 1500 0 1500 0 0 1500 0 1500 -1500 0 -1500 0 0
-1500z m2990 0 l0 -1490 -1490 0 -1490 0 0 1490 0 1490 1490 0 1490 0 0 -1490z"/>
<path d="M1695 1840 c-120 -11 -202 -33 -310 -85 -241 -116 -363 -286 -381
-530 -10 -130 33 -295 104 -403 73 -112 232 -216 392 -257 88 -22 303 -31 415
-16 101 13 242 48 251 63 3 5 -4 47 -17 94 -18 69 -25 84 -38 79 -116 -45
-323 -67 -431 -47 -233 44 -384 205 -398 424 -13 222 109 396 329 467 108 35
313 31 436 -9 74 -24 73 -24 73 -5 0 8 -4 15 -9 15 -21 0 -134 117 -157 162
-23 46 -26 48 -68 48 -24 0 -56 2 -72 4 -16 2 -69 0 -119 -4z"/>
</g>
</svg>
